<svg id="visual" viewBox="0 0 900 600" width="900" height="600" xmlns="http://www.w3.org/2000/svg" xmlns:xlink="http://www.w3.org/1999/xlink" version="1.1"><g transform="translate(951.9334573346491 70.92998902726183)"><path d="M305.3 -352.2C411.3 -274.9 523.8 -193.5 528.1 -102.9C532.4 -12.3 428.6 87.6 343.9 165C259.3 242.5 193.8 297.4 113.1 339C32.5 380.6 -63.3 408.8 -192.9 412.5C-322.5 416.3 -486 395.7 -566 304C-646.1 212.4 -642.6 49.9 -612 -105.2C-581.4 -260.3 -523.7 -407.8 -417.2 -485C-310.7 -562.3 -155.3 -569.1 -27.9 -535.9C99.6 -502.7 199.3 -429.5 305.3 -352.2" fill="#9873d2"></path></g></svg>