<svg id="visual" viewBox="0 0 1920 1080" width="1920" height="1080" xmlns="http://www.w3.org/2000/svg" xmlns:xlink="http://www.w3.org/1999/xlink" version="1.1"><rect x="0" y="0" width="1920" height="1080" fill="#fff"></rect><g transform="translate(1972.9615872887287 338.5844254797418)"><path d="M345.4 -485.8C538.3 -249.8 847.7 -226.9 945.2 -103.1C1042.8 20.6 928.4 245.3 747.1 311C565.8 376.8 317.5 283.5 136 331.3C-45.6 379 -160.5 567.7 -236.5 573.3C-312.6 578.8 -349.9 401.2 -534.7 234.4C-719.6 67.6 -1052.1 -88.3 -1084.2 -240.7C-1116.4 -393.1 -848.1 -542 -617.3 -771.3C-386.5 -1000.6 -193.3 -1310.3 -58.5 -1240.6C76.3 -1170.9 152.6 -721.8 345.4 -485.8" fill="#9873d2"></path></g></svg>