<svg id="visual" viewBox="0 0 1920 1080" width="1920" height="1080" xmlns="http://www.w3.org/2000/svg" xmlns:xlink="http://www.w3.org/1999/xlink" version="1.1"><rect x="0" y="0" width="1920" height="1080" fill="#fff"></rect><g transform="translate(1813.4885066376658 -161.2238081828463)"><path d="M416 -495.9C446.4 -470.3 314.3 -251.2 432.2 -12.6C550.1 226.1 918.1 484.3 961 690.9C1003.9 897.5 721.7 1052.5 469.1 1033.8C216.5 1015.2 -6.5 822.9 -228.4 707.4C-450.3 592 -671.2 553.5 -732.4 430.9C-793.6 308.3 -695.2 101.5 -685.8 -150.3C-676.4 -402.1 -756 -699 -656.5 -712.4C-557.1 -725.8 -278.5 -455.7 -42.9 -404.6C192.8 -353.6 385.7 -521.5 416 -495.9" fill="#9873d2"></path></g></svg>