<svg id="visual" viewBox="0 0 960 540" width="960" height="540" xmlns="http://www.w3.org/2000/svg" xmlns:xlink="http://www.w3.org/1999/xlink" version="1.1"><g transform="translate(1037.9887291516884 8.145944746086286)"><path d="M144.1 -262.4C176.9 -203.2 186.7 -146.5 248.7 -90.2C310.8 -34 425.1 21.8 420.3 61C415.6 100.2 291.7 122.8 220.8 174.8C150 226.8 132.2 308.2 84.9 349.7C37.7 391.2 -39.1 392.8 -79.4 346.2C-119.7 299.7 -123.6 205.1 -215.7 155.4C-307.7 105.7 -487.9 100.9 -549.9 44.5C-611.9 -12 -555.6 -120 -479.7 -191.1C-403.7 -262.2 -308.1 -296.4 -224.9 -332.6C-141.6 -368.7 -70.8 -406.9 -7.6 -395.1C55.7 -383.3 111.4 -321.6 144.1 -262.4" fill="#BB004B"></path></g></svg>