<svg id="visual" viewBox="0 0 1920 1080" width="1920" height="1080" xmlns="http://www.w3.org/2000/svg" xmlns:xlink="http://www.w3.org/1999/xlink" version="1.1"><rect x="0" y="0" width="1920" height="1080" fill="#FF0066"></rect><g transform="translate(1982.7140892578223 -19.211366972992778)"><path d="M387.7 -663.6C523.4 -593.1 668.7 -531.6 698.2 -422.5C727.7 -313.3 641.4 -156.7 603.8 -21.7C566.3 113.3 577.6 226.7 551.3 341.4C525.1 456.2 461.3 572.3 363.1 695.7C265 819 132.5 949.5 21.2 912.7C-90 875.9 -180 671.8 -297.1 559.4C-414.1 446.9 -558.2 426.2 -651.6 348.3C-744.9 270.3 -787.4 135.2 -811.7 -14C-835.9 -163.2 -841.9 -326.3 -789.6 -475.3C-737.2 -624.2 -626.6 -759 -485.3 -826.2C-344 -893.5 -172 -893.2 -23 -853.4C126 -813.6 252 -734.1 387.7 -663.6" fill="#BB004B"></path></g></svg>