<svg id="visual" viewBox="0 0 1920 1080" width="1920" height="1080" xmlns="http://www.w3.org/2000/svg" xmlns:xlink="http://www.w3.org/1999/xlink" version="1.1"><rect x="0" y="0" width="1920" height="1080" fill="#fff"></rect><g transform="translate(1925.559851015217 123.52088350388294)"><path d="M370.3 -711.7C370.3 -509.7 185.2 -254.8 317.3 -54.4C449.5 146.1 899.1 292.1 981.2 405.1C1063.3 518.1 777.9 598 553.1 732.5C328.4 867 164.2 1056 75.9 951.5C-12.3 847 -24.7 449 -244.4 312.9C-464.1 176.7 -891.1 302.5 -985.1 261.5C-1079.1 220.4 -840.1 12.6 -779.1 -277.3C-718.1 -567.1 -835.2 -938.8 -735 -1108.3C-634.8 -1277.7 -317.4 -1244.9 -66.1 -1153.9C185.2 -1062.8 370.3 -913.7 370.3 -711.7" fill="#9873d2"></path></g></svg>