<svg id="visual" viewBox="0 0 1920 1080" width="1920" height="1080" xmlns="http://www.w3.org/2000/svg" xmlns:xlink="http://www.w3.org/1999/xlink" version="1.1"><rect x="0" y="0" width="1920" height="1080" fill="#fff"></rect><g transform="translate(1909.1411497895433 -169.3882990921137)"><path d="M485.9 -668.7C634.5 -660.6 763 -533.9 801 -385C839.1 -236.2 786.8 -65.3 771.3 117.9C755.9 301.1 777.4 496.7 712 673.4C646.7 850.1 494.5 1007.9 327.5 1007.9C160.5 1007.8 -21.3 849.8 -226.9 784.2C-432.4 718.6 -661.7 745.3 -747.3 647.2C-832.9 549.1 -774.8 326.1 -758.3 137.1C-741.9 -51.9 -767.1 -206.9 -721.1 -338.3C-675.1 -469.8 -557.8 -577.7 -425.8 -593.3C-293.7 -609 -146.9 -532.3 10.9 -549.3C168.7 -566.2 337.4 -676.8 485.9 -668.7" fill="#9873d2"></path></g></svg>