<svg id="visual" viewBox="0 0 1920 1080" width="1920" height="1080" xmlns="http://www.w3.org/2000/svg" xmlns:xlink="http://www.w3.org/1999/xlink" version="1.1"><rect x="0" y="0" width="1920" height="1080" fill="#fff"></rect><g transform="translate(1937.0159678352352 13.325954735684945)"><path d="M607 -850.6C776 -835.8 895.1 -649.5 921.6 -459.6C948 -269.7 881.8 -76.2 777.1 56.8C672.5 189.7 529.3 262.2 415.4 317.6C301.5 373.1 216.8 411.5 102.7 525.1C-11.4 638.7 -154.9 827.4 -260.5 824.9C-366.2 822.3 -434 628.6 -579.6 487.3C-725.2 346.1 -948.6 257.3 -960.9 141C-973.2 24.7 -774.5 -119.1 -620.2 -211.1C-466 -303.1 -356.2 -343.2 -260.2 -391.4C-164.2 -439.5 -82.1 -495.8 68.4 -602.2C219 -708.7 437.9 -865.4 607 -850.6" fill="#9873d2"></path></g></svg>